<svg width="162" height="42" viewBox="0 0 162 42" fill="none" xmlns="http://www.w3.org/2000/svg">
<path d="M6.76539 0.740453L6.61935 0.5H6.33803H2H1.1039L1.5745 1.26258L16.9366 26.1559V41V41.5H17.4366H21.3803H21.8803V41V26.2685L37.2988 1.26242L37.7689 0.5H36.8732H32.5915H32.3115L32.1652 0.738824L19.4103 21.5609L6.76539 0.740453ZM50.7474 0.5H50.4145L50.2861 0.807047L33.5537 40.807L33.2638 41.5H34.015H38.2403H38.5757L38.703 41.1896L43.7025 28.993H61.0049L66.0601 41.1914L66.188 41.5H66.522H70.691H71.4402L71.1527 40.8082L54.533 0.808154L54.405 0.5H54.0713H50.7474ZM80.3688 41.5H80.8688V41V9.70707L105.836 41.31L105.986 41.5H106.228H109.89H110.39V41V1.05634V0.556337H109.89H105.946H105.446V1.05634V32.9085L80.0857 0.690738L79.9355 0.5H79.6928H76.4252H75.9252V1V41V41.5H76.4252H80.3688ZM119.444 41V41.5H119.944H123.888H124.388V41V28.92L131.336 21.7105L146.25 41.3029L146.401 41.5H146.648H151.099H152.112L151.496 40.6959L134.57 18.6085L150.62 1.34041L151.401 0.5H150.254H145.916H145.701L145.553 0.65625L124.388 23.0122V1.05634V0.556337H123.888H119.944H119.444V1.05634V41ZM155.646 41V41.5H156.146H160.089H160.589V41V1V0.5H160.089H156.146H155.646V1V41ZM52.3779 6.93705L59.6939 24.8944H44.9597L52.3779 6.93705Z" fill="white" stroke="black"/>
</svg>
